<?xml version="1.0" standalone="no"?><!DOCTYPE svg PUBLIC "-//W3C//DTD SVG 1.1//EN" "http://www.w3.org/Graphics/SVG/1.1/DTD/svg11.dtd"><svg t="1592877994282" class="icon" viewBox="0 0 1024 1024" version="1.1" xmlns="http://www.w3.org/2000/svg" p-id="1802" xmlns:xlink="http://www.w3.org/1999/xlink" width="200" height="200"><defs><style type="text/css"></style></defs><path d="M188.352 19.04a109.984 109.984 0 0 0-110.08 110.016 110.368 110.368 0 0 0 110.08 110.016 109.984 109.984 0 1 0 0-220.032z m243.232 479.232l99.648-34.816 7.936-2.432 7.392 4.288 75.168 46.976 62.304-177.856 9.824-26.88 19.552 20.768 56.8 60.48 83.104-143.008 30.016 17.76-94.752 163.232-11.616 20.128-15.904-17.12-53.152-56.832-59.936 171.808-7.328 20.736-18.304-11.584-86.784-54.368-91.776 31.744-12.192-33.024z m18.4 434.048h336.8v59.296H449.984v-59.296z m212.064-191.968h361.856V49.6H355.232v70.272h599.04v550.784H383.936v70.176h182.144v173.728h95.968v-174.208zM0.096 553.952l69.664 52.576-22.592 385.632h100.864l17.12-328.864h42.752l20.8 328.864h94.688l-14.624-385.664-8-235.36 230.464-3.648 49.568-87.424-259.2-12.192H204.864l8.544 14.656-11.616 23.2 25.088 177.248-38.528 39.808v2.944l-1.28-1.824-1.792 1.824v-2.944l-39.136-40.416 25.12-177.248-11.616-23.2 8.512-14.656h-114.88L0.096 553.952z" p-id="1803"></path></svg>