<?xml version="1.0" standalone="no"?><!DOCTYPE svg PUBLIC "-//W3C//DTD SVG 1.1//EN" "http://www.w3.org/Graphics/SVG/1.1/DTD/svg11.dtd"><svg t="1591421884634" class="icon" viewBox="0 0 1024 1024" version="1.1" xmlns="http://www.w3.org/2000/svg" p-id="5003" xmlns:xlink="http://www.w3.org/1999/xlink" width="200" height="200"><defs><style type="text/css"></style></defs><path d="M847.5 64h-671c-35.3 0-64 28.7-64 64v768c0 35.3 28.7 64 64 64h671c35.3 0 64-28.7 64-64V128c0-35.3-28.7-64-64-64z m0 800c0 17.7-14.3 32-32 32h-607c-17.7 0-32-14.3-32-32V160c0-17.7 14.3-32 32-32h607c17.7 0 32 14.3 32 32v704z" p-id="5004"></path><path d="M502.6 334H743c22.1 0 40.1-14.3 40.1-32s-17.9-32-40.1-32H502.6c-22.1 0-40.1 14.3-40.1 32s17.9 32 40.1 32zM293.9 369.9c12.5 12.5 32.8 12.5 45.3 0l91.2-91.2c12.5-12.5 12.5-32.8 0-45.3s-32.8-12.5-45.3 0L316.5 302l-22.6-22.6c-12.5-12.5-32.8-12.5-45.3 0s-12.5 32.8 0 45.3l45.3 45.2zM744.4 463H504.1c-22.1 0-40.1 14.3-40.1 32s17.9 32 40.1 32h240.4c22.1 0 40.1-14.3 40.1-32-0.1-17.7-18-32-40.2-32zM431.9 426.4c-12.5-12.5-32.8-12.5-45.3 0L318 495l-22.6-22.6c-12.5-12.5-32.8-12.5-45.3 0s-12.5 32.8 0 45.3l45.3 45.3c12.5 12.5 32.8 12.5 45.3 0l91.2-91.2c12.5-12.7 12.5-32.9 0-45.4zM744.4 654H504.1c-22.1 0-40.1 14.3-40.1 32s17.9 32 40.1 32h240.4c22.1 0 40.1-14.3 40.1-32-0.1-17.7-18-32-40.2-32zM431.9 617.4c-12.5-12.5-32.8-12.5-45.3 0L317 687l-21.6-21.6c-12.5-12.5-32.8-12.5-45.3 0s-12.5 32.8 0 45.3l45.3 45.3c12.5 12.5 32.8 12.5 45.3 0 2.3-2.3 4.2-4.9 5.7-7.7l85.5-85.5c12.5-12.7 12.5-32.9 0-45.4z" p-id="5005"></path></svg>