<?xml version="1.0" standalone="no"?><!DOCTYPE svg PUBLIC "-//W3C//DTD SVG 1.1//EN" "http://www.w3.org/Graphics/SVG/1.1/DTD/svg11.dtd"><svg t="1587287053913" class="icon" viewBox="0 0 1024 1024" version="1.1" xmlns="http://www.w3.org/2000/svg" p-id="1165" xmlns:xlink="http://www.w3.org/1999/xlink" width="200" height="200"><defs><style type="text/css"></style></defs><path d="M899 1019H705.5c-13.4 0-24.2-10.8-24.2-24.2 0-13.4 10.8-24.2 24.2-24.2H899c40 0 72.6-32.6 72.6-72.6V704.5c0-13.4 10.8-24.2 24.2-24.2 13.4 0 24.2 10.8 24.2 24.2V898c0 66.7-54.3 121-121 121z m-580.6 0H124.9C58.2 1019 4 964.7 4 898V704.5c0-13.4 10.8-24.2 24.2-24.2s24.2 10.8 24.2 24.2V898c0 40 32.6 72.6 72.6 72.6h193.5c13.4 0 24.2 10.8 24.2 24.2-0.1 13.4-10.9 24.2-24.3 24.2z m677.4-677.3c-13.4 0-24.2-10.8-24.2-24.2V124c0-40-32.6-72.6-72.6-72.6H705.5c-13.4 0-24.2-10.8-24.2-24.2S692.1 3 705.5 3H899c66.7 0 121 54.3 121 121v193.5c0 13.3-10.9 24.2-24.2 24.2z m-967.6 0C14.8 341.7 4 330.8 4 317.5V124C4 57.3 58.2 3 124.9 3h193.5c13.4 0 24.2 10.8 24.2 24.2s-10.8 24.2-24.2 24.2H124.9c-40 0-72.6 32.6-72.6 72.6v193.5c0 13.3-10.8 24.2-24.1 24.2zM1020 511c0-13.4-10.8-24.2-24.2-24.2H28.2C14.8 486.8 4 497.6 4 511c0 13.4 10.8 24.2 24.2 24.2h967.6c13.3 0 24.2-10.8 24.2-24.2z" fill="#999999" p-id="1166"></path></svg>