<?xml version="1.0" standalone="no"?><!DOCTYPE svg PUBLIC "-//W3C//DTD SVG 1.1//EN" "http://www.w3.org/Graphics/SVG/1.1/DTD/svg11.dtd"><svg t="1587382734085" class="icon" viewBox="0 0 1024 1024" version="1.1" xmlns="http://www.w3.org/2000/svg" p-id="3550" xmlns:xlink="http://www.w3.org/1999/xlink" width="200" height="200"><defs><style type="text/css"></style></defs><path d="M735.8 844.7h-462c-11.6 0-21-9.4-21-21V345.9c0-11.6 9.4-21 21-21h462c11.6 0 21 9.4 21 21v477.8c0 11.6-9.4 21-21 21z m-441-42h420V366.9h-420v435.8zM777.8 284.7h-546c-11.5 0-21-9.4-21-21 0-11.5 9.4-21 21-21h546c11.5 0 21 9.4 21 21s-9.5 21-21 21z" p-id="3551"></path><path d="M408.2 353.1h42v470.6h-42zM559.4 345.9h42v477.8h-42z" p-id="3552"></path></svg>