<?xml version="1.0" standalone="no"?><!DOCTYPE svg PUBLIC "-//W3C//DTD SVG 1.1//EN" "http://www.w3.org/Graphics/SVG/1.1/DTD/svg11.dtd"><svg t="1587295793799" class="icon" viewBox="0 0 1024 1024" version="1.1" xmlns="http://www.w3.org/2000/svg" p-id="9092" xmlns:xlink="http://www.w3.org/1999/xlink" width="200" height="200"><defs><style type="text/css"></style></defs><path d="M928 545c-8.2 0-16.4-3.13-22.66-9.4L512 141.31 118.65 535.6c-12.48 12.51-32.74 12.54-45.25 0.05-12.51-12.48-12.54-32.74-0.05-45.25l416-417c6-6.02 14.15-9.4 22.65-9.4s16.65 3.38 22.65 9.4l416 417c12.48 12.51 12.46 32.77-0.05 45.25-6.25 6.24-14.42 9.35-22.6 9.35z" p-id="9093"></path><path d="M832 960H192c-17.67 0-32-14.33-32-32V577c0-17.67 14.33-32 32-32s32 14.33 32 32v319h576V577c0-17.67 14.33-32 32-32s32 14.33 32 32v351c0 17.67-14.33 32-32 32z" p-id="9094"></path><path d="M427.33 581h-86.67c-27.94 0-50.67-22.73-50.67-50.67v-86.67c0-27.94 22.73-50.67 50.67-50.67h86.67c27.94 0 50.67 22.73 50.67 50.67v86.67c0 27.94-22.73 50.67-50.67 50.67zM350 521h68v-68h-68v68zM427.33 832h-86.67c-27.94 0-50.67-22.73-50.67-50.67v-86.67c0-27.94 22.73-50.67 50.67-50.67h86.67c27.94 0 50.67 22.73 50.67 50.67v86.67c0 27.94-22.73 50.67-50.67 50.67zM350 772h68v-68h-68v68zM683.33 832h-86.67c-27.94 0-50.67-22.73-50.67-50.67v-86.67c0-27.94 22.73-50.67 50.67-50.67h86.67c27.94 0 50.67 22.73 50.67 50.67v86.67c0 27.94-22.73 50.67-50.67 50.67zM606 772h68v-68h-68v68z" p-id="9095"></path></svg>