<?xml version="1.0" standalone="no"?><!DOCTYPE svg PUBLIC "-//W3C//DTD SVG 1.1//EN" "http://www.w3.org/Graphics/SVG/1.1/DTD/svg11.dtd"><svg t="1591421462881" class="icon" viewBox="0 0 1024 1024" version="1.1" xmlns="http://www.w3.org/2000/svg" p-id="3401" xmlns:xlink="http://www.w3.org/1999/xlink" width="200" height="200"><defs><style type="text/css"></style></defs><path d="M819.182933 955.716267a34.1504 34.1504 0 0 1 0 68.283733H204.8a34.1504 34.1504 0 0 1 0-68.283733H819.2z m34.133334-955.716267C947.5072 0 1024 71.406933 1024 159.232v568.951467c-0.136533 87.842133-76.629333 159.232-170.683733 159.232H170.666667C76.6464 887.432533 0 816.042667 0 728.200533V159.249067C0 71.406933 76.629333 0 170.683733 0H853.333333z m0 68.283733H170.666667c-56.507733 0-102.4 40.789333-102.4 90.965334v568.9344c0 50.158933 45.892267 90.965333 102.4 90.965333h682.615466c56.5248 0 102.417067-40.8064 102.417067-90.965333V159.249067C955.733333 109.090133 909.824 68.266667 853.333333 68.266667zM564.872533 597.333333c17.92 0 32.443733 15.274667 32.443734 34.133334s-14.523733 34.133333-32.443734 34.133333H254.293333C236.3904 665.6 221.866667 650.325333 221.866667 631.466667s14.523733-34.133333 32.443733-34.133334H564.906667zM464.042667 249.685333l3.310933 2.1504 3.6352 2.850134c8.328533 6.894933 15.394133 15.496533 20.855467 25.326933l2.235733 4.266667 2.696533 5.853866c4.266667 9.864533 7.509333 20.224 9.6768 30.890667l1.1776 6.4512 1.518934 9.5744c1.365333 9.608533 2.218667 19.3024 2.6112 29.013333l0.238933 9.728-0.1024 8.192a260.096 260.096 0 0 1-2.901333 32.426667l-1.365334 8.021333-1.3312 6.417067a157.6448 157.6448 0 0 1-10.3936 30.685867l-2.798933 5.7856-2.269867 4.215466a90.555733 90.555733 0 0 1-20.855466 24.917334l-3.618134 2.833066-3.584 2.440534a64.494933 64.494933 0 0 1-31.778133 10.205866l-4.1984 0.0512-4.181333-0.0512a65.8944 65.8944 0 0 1-31.709867-9.966933l-3.584-2.389333-3.618133-2.781867a88.8832 88.8832 0 0 1-20.855467-24.695467l-2.269867-4.181333-2.833066-5.700267a157.730133 157.730133 0 0 1-10.581334-30.2592l-1.365333-6.314666-1.399467-8.055467a259.072 259.072 0 0 1-2.9696-32.597333l-0.1024-8.192c0-13.056 0.853333-26.094933 2.6112-38.980267l1.4848-9.659733 1.194667-6.4512a164.010667 164.010667 0 0 1 9.710933-31.0272l2.645334-5.888 2.218666-4.369067a87.6032 87.6032 0 0 1 20.855467-25.7024l3.669333-2.901333 3.293867-2.133334a70.826667 70.826667 0 0 1 75.025067 0z m221.934933 0l3.310933 2.1504 3.6352 2.8672a90.112 90.112 0 0 1 20.855467 25.309867l2.2528 4.266667 2.628267 5.870933c4.164267 9.8816 7.338667 20.241067 9.437866 30.890667l1.1264 6.434133 1.570134 9.5744c1.416533 9.608533 2.338133 19.285333 2.781866 29.013333l0.290134 9.728-0.1024 8.192a259.9936 259.9936 0 0 1-2.986667 32.426667l-1.365333 8.021333-1.3312 6.417067a157.576533 157.576533 0 0 1-10.410667 30.685867l-2.798933 5.7856-2.269867 4.215466a90.555733 90.555733 0 0 1-20.872533 24.917334l-3.601067 2.833066-3.584 2.440534a64.546133 64.546133 0 0 1-31.812267 10.205866L648.533333 512l-4.181333-0.0512a65.962667 65.962667 0 0 1-31.726933-9.966933l-3.584-2.389334-3.618134-2.781866a88.900267 88.900267 0 0 1-20.872533-24.695467l-2.269867-4.181333-2.798933-5.717334a157.7984 157.7984 0 0 1-10.461867-30.242133l-1.365333-6.314667-1.365333-8.055466a258.935467 258.935467 0 0 1-2.986667-32.597334l-0.1024-8.192c0-13.056 0.853333-26.094933 2.628267-38.980266l1.467733-9.659734 1.211733-6.4512c2.218667-10.7008 5.461333-21.111467 9.693867-31.0272l2.6624-5.888 2.218667-4.352a89.361067 89.361067 0 0 1 20.872533-25.7024l3.652267-2.901333 3.293866-2.1504a70.894933 70.894933 0 0 1 75.093334 0z m-396.014933 16.298667l0.119466 2.116267v214.152533c0 15.547733-13.141333 29.678933-25.668266 29.678933s-25.2416-11.229867-25.2416-26.385066V293.649067a29.832533 29.832533 0 0 1-10.9568-3.242667l-2.065067-1.399467c-5.717333-4.676267-9.216-12.202667-9.557333-20.309333v-2.730667c-0.341333-8.192 2.56-16.0768 7.748266-21.418666l1.809067-1.706667c4.744533-3.5328 15.598933-3.857067 21.213867-3.7376h14.353066c14.08-1.792 26.7264 10.24 28.245334 26.88z m358.9632 24.183467h-2.013867c-3.208533 0.2048-6.314667 1.348267-9.045333 3.310933l-1.979734 1.621333-2.3552 2.56a51.712 51.712 0 0 0-7.6288 12.049067l-1.416533 3.413333-2.048 5.632c-1.911467 5.6832-3.413333 11.554133-4.488533 17.544534l-0.938667 6.0416-1.143467 8.686933c-0.648533 5.802667-1.0752 11.656533-1.297066 17.5104l-0.170667 8.789333 0.170667 8.669867c0.2048 5.802667 0.597333 11.5712 1.194666 17.3056l1.0752 8.6016 0.887467 5.632c1.024 5.614933 2.491733 11.093333 4.334933 16.384l1.9968 5.256533 1.365334 3.140267c1.979733 4.096 4.471467 7.816533 7.389866 11.025067l2.286934 2.304 1.757866 1.348266c2.9184 1.9968 6.178133 3.157333 9.540267 3.3792h2.525867v0.4096c3.857067 0.170667 7.68-0.989867 10.9568-3.310933l1.911466-1.536 2.321067-2.4064c2.9696-3.362133 5.512533-7.202133 7.560533-11.434667l1.4336-3.242666 1.962667-5.341867a117.248 117.248 0 0 0 4.334933-16.6912l0.904534-5.7344 1.024-8.482133c0.597333-5.649067 0.989867-11.332267 1.194666-17.032534L682.666667 377.002667l-0.1536-8.618667a230.621867 230.621867 0 0 0-1.262934-17.134933l-1.109333-8.533334-0.8704-6.075733a131.037867 131.037867 0 0 0-4.283733-17.8176l-1.979734-5.7344-1.416533-3.413333c-2.048-4.437333-4.608-8.533333-7.6288-12.117334l-2.338133-2.577066-1.604267-1.348267a17.134933 17.134933 0 0 0-8.7552-3.447467l-2.338133-0.034133z m-222.208 0h-1.9968c-3.157333 0.221867-6.212267 1.365333-8.9088 3.310933l-1.962667 1.621333-2.338133 2.56a52.189867 52.189867 0 0 0-7.6288 12.049067l-1.416534 3.413333-2.048 5.632a125.7472 125.7472 0 0 0-4.437333 17.544534l-0.938667 6.0416-1.092266 8.686933c-0.6144 5.802667-1.024 11.656533-1.245867 17.5104l-0.170667 8.772267 0.136534 8.704c0.187733 5.768533 0.597333 11.537067 1.194666 17.288533l1.092267 8.584533 0.853333 5.632c1.024 5.614933 2.440533 11.093333 4.266667 16.384l1.9456 5.256534 1.3824 3.140266c1.979733 4.096 4.471467 7.816533 7.406933 11.025067l2.269867 2.286933 1.7408 1.365334c2.8672 1.979733 6.0928 3.140267 9.386667 3.3792h2.5088v0.4096c4.061867 0.273067 8.072533-0.955733 11.52-3.464534l1.672533-1.365333 2.286933-2.423467c2.952533-3.345067 5.461333-7.185067 7.458134-11.434666l1.399466-3.242667 1.9968-5.3248c1.860267-5.410133 3.310933-10.990933 4.352-16.6912l0.887467-5.751467 1.0752-8.465066c0.597333-5.666133 1.024-11.349333 1.245867-17.032534L460.8 377.002667l-0.170667-8.6016a244.497067 244.497067 0 0 0-1.262933-17.152l-1.0752-8.4992-0.9728-6.109867a131.208533 131.208533 0 0 0-4.5568-17.8176l-2.048-5.717333-1.4336-3.413334c-2.013867-4.471467-4.590933-8.533333-7.611733-12.117333l-2.3552-2.56-1.5872-1.365333a16.349867 16.349867 0 0 0-11.008-3.4816z" fill="#121649" p-id="3402"></path></svg>