<?xml version="1.0" standalone="no"?><!DOCTYPE svg PUBLIC "-//W3C//DTD SVG 1.1//EN" "http://www.w3.org/Graphics/SVG/1.1/DTD/svg11.dtd"><svg t="1592900384799" class="icon" viewBox="0 0 1024 1024" version="1.1" xmlns="http://www.w3.org/2000/svg" p-id="2798" xmlns:xlink="http://www.w3.org/1999/xlink" width="200" height="200"><defs><style type="text/css"></style></defs><path d="M745.7 916.7h-603V106.6h645.8v219.2c0 11.8 9.5 21.4 21.4 21.4 11.8 0 21.4-9.5 21.4-21.4V98.1c0-18.9-15.4-34.2-34.2-34.2h-663c-18.9 0-34.2 15.4-34.2 34.2v827.2c0 18.9 15.4 34.2 34.2 34.2h611.5c11.8 0 21.4-9.5 21.4-21.4 0.1-11.9-9.5-21.4-21.3-21.4z m0 0" p-id="2799"></path><path d="M684.2 188.8H250.7c-11.8 0-21.4 9.5-21.4 21.4 0 11.8 9.5 21.4 21.4 21.4h433.5c11.8 0 21.4-9.5 21.4-21.4 0-11.8-9.5-21.4-21.4-21.4z m0 102H250.7c-11.8 0-21.4 9.5-21.4 21.4 0 11.8 9.5 21.4 21.4 21.4h433.5c11.8 0 21.4-9.5 21.4-21.4 0-11.8-9.5-21.4-21.4-21.4z m206 61.9H503.9c-19.8 0-35.9 16.2-35.9 35.9v21H305.2c-19.4 0-35.2 15.8-35.2 35.2v340.3c0 19.4 15.8 35.2 35.2 35.2H468v42.1c0 19.8 16.2 35.9 35.9 35.9h386.2c19.8 0 35.9-16.2 35.9-35.9V388.6c0.1-19.9-16-35.9-35.8-35.9zM314.9 775.5v-321H468v321H314.9z m566.4 78.1H512.9v-456h368.3v456h0.1z m0 0" p-id="2800"></path><path d="M691.5 486.8c7.4 3.1 15.9 2 22.3-2.9s9.6-12.8 8.6-20.7c-1-8-6.3-14.7-13.7-17.8-7.4-3.1-15.9-2-22.3 2.9s-9.6 12.8-8.6 20.7c1.1 7.9 6.3 14.7 13.7 17.8z m0 0M691.5 565.6c7.4 3.1 15.9 2 22.3-2.9s9.6-12.8 8.6-20.7-6.3-14.7-13.7-17.8c-7.4-3.1-15.9-2-22.3 2.9s-9.6 12.8-8.6 20.7 6.3 14.7 13.7 17.8z m0 0M691.5 644.3c11.5 4.7 24.6-0.7 29.3-12.1 4.7-11.5-0.7-24.6-12.2-29.3-11.5-4.7-24.6 0.7-29.3 12.2-4.7 11.4 0.8 24.5 12.2 29.2z m0 0M691.6 723.1c7.4 3.1 15.9 2 22.3-2.9s9.6-12.8 8.6-20.7c-1-8-6.3-14.7-13.7-17.8-7.4-3.1-15.9-2-22.3 2.9s-9.6 12.8-8.6 20.7c1 7.9 6.3 14.7 13.7 17.8z m0 0M691.5 801.8c7.4 3.1 15.9 2 22.3-2.9s9.6-12.8 8.6-20.7c-1-8-6.3-14.7-13.7-17.8-7.4-3.1-15.9-2-22.3 2.9s-9.6 12.8-8.6 20.7c1.1 8 6.3 14.8 13.7 17.8z m0 0" p-id="2801"></path></svg>