<?xml version="1.0" standalone="no"?><!DOCTYPE svg PUBLIC "-//W3C//DTD SVG 1.1//EN" "http://www.w3.org/Graphics/SVG/1.1/DTD/svg11.dtd"><svg t="1587288259663" class="icon" viewBox="0 0 1024 1024" version="1.1" xmlns="http://www.w3.org/2000/svg" p-id="6047" xmlns:xlink="http://www.w3.org/1999/xlink" width="200" height="200"><defs><style type="text/css"></style></defs><path d="M256 160H128c-35.3 0-64 28.7-64 64v576c0 35.3 28.7 64 64 64h128c35.3 0 64-28.7 64-64V224c0-35.3-28.7-64-64-64z m0 608c0 17.7-14.3 32-32 32h-64c-17.7 0-32-14.3-32-32v-63.9h128V768zM128 640.1V256c0-17.7 14.3-32 32-32h64c17.7 0 32 14.3 32 32v384.1H128zM576 160H448c-35.3 0-64 28.7-64 64v576c0 35.3 28.7 64 64 64h128c35.3 0 64-28.7 64-64V224c0-35.3-28.7-64-64-64z m0 608c0 17.7-14.3 32-32 32h-64c-17.7 0-32-14.3-32-32v-64h128v64zM448 640V256c0-17.7 14.3-32 32-32h64c17.7 0 32 14.3 32 32v384H448zM896 160H768c-35.3 0-64 28.7-64 64v576c0 35.3 28.7 64 64 64h128c35.3 0 64-28.7 64-64V224c0-35.3-28.7-64-64-64z m0 608c0 17.7-14.3 32-32 32h-64c-17.7 0-32-14.3-32-32v-63.9h128V768zM768 640.1V256c0-17.7 14.3-32 32-32h64c17.7 0 32 14.3 32 32v384.1H768z" p-id="6048"></path><path d="M512 352m-32 0a32 32 0 1 0 64 0 32 32 0 1 0-64 0Z" p-id="6049"></path><path d="M832 352m-32 0a32 32 0 1 0 64 0 32 32 0 1 0-64 0Z" p-id="6050"></path><path d="M192 352m-32 0a32 32 0 1 0 64 0 32 32 0 1 0-64 0Z" p-id="6051"></path></svg>