<?xml version="1.0" standalone="no"?><!DOCTYPE svg PUBLIC "-//W3C//DTD SVG 1.1//EN" "http://www.w3.org/Graphics/SVG/1.1/DTD/svg11.dtd"><svg t="1589160496775" class="icon" viewBox="0 0 1024 1024" version="1.1" xmlns="http://www.w3.org/2000/svg" p-id="1917" xmlns:xlink="http://www.w3.org/1999/xlink" width="200" height="200"><defs><style type="text/css"></style></defs><path d="M618.3 63.8H149.2C102.2 63.8 63 102 63 149v726c0 47 39.3 85.2 86.3 85.2h469.1c47 0 85.3-38.2 85.3-85.2V149c-0.1-47-38.4-85.2-85.4-85.2z m20.8 823.5c0 4.8-4 8.7-8.9 8.7H136.5c-4.9 0-8.8-3.9-8.8-8.7V137.5c0-4.8 4-8.7 8.8-8.7h493.8c4.9 0 8.9 3.9 8.9 8.7v749.8h-0.1z" p-id="1918"></path><path d="M479.3 384H223c-17.7 0-32-14.3-32-32s14.3-32 32-32h256.4c17.7 0 32 14.3 32 32s-14.4 32-32.1 32zM542.4 512H223c-17.7 0-32-14.3-32-32s14.3-32 32-32h319.4c17.7 0 32 14.3 32 32s-14.3 32-32 32zM414.4 640H223c-17.7 0-32-14.3-32-32s14.3-32 32-32h191.3c17.7 0 32 14.3 32 32 0.1 17.6-14.2 32-31.9 32zM798.9 320c17.7 0 32 14.3 32 32v575.5c0 17.7-14.3 32-32 32s-32-14.3-32-32V352c0-17.7 14.3-32 32-32zM927 448c17.7 0 32 14.3 32 32v448.2c0 17.7-14.3 32-32 32s-32-14.3-32-32V480c0-17.7 14.3-32 32-32z" p-id="1919"></path></svg>