<?xml version="1.0" standalone="no"?><!DOCTYPE svg PUBLIC "-//W3C//DTD SVG 1.1//EN" "http://www.w3.org/Graphics/SVG/1.1/DTD/svg11.dtd"><svg t="1591421133832" class="icon" viewBox="0 0 1024 1024" version="1.1" xmlns="http://www.w3.org/2000/svg" p-id="1962" xmlns:xlink="http://www.w3.org/1999/xlink" width="200" height="200"><defs><style type="text/css"></style></defs><path d="M768 192 256 192C217.6 192 192 217.6 192 256l0 576c0 38.4 25.6 64 64 64l512 0c38.4 0 64-25.6 64-64L832 256C832 217.6 806.4 192 768 192zM800 819.2c0 25.6-19.2 51.2-51.2 51.2L268.8 870.4c-25.6 0-51.2-19.2-51.2-51.2L217.6 268.8c0-25.6 19.2-51.2 51.2-51.2l480 0c25.6 0 51.2 19.2 51.2 51.2L800 819.2z" p-id="1963"></path><path d="M704 192 320 192l0 0c0-38.4 25.6-64 64-64l256 0C678.4 128 704 153.6 704 192L704 192z" p-id="1964"></path><path d="M371.2 377.6C377.6 371.2 384 364.8 384 352 384 332.8 371.2 320 352 320 332.8 320 320 332.8 320 352c0 12.8 6.4 19.2 12.8 25.6C307.2 384 288 409.6 288 435.2l128 0C416 409.6 396.8 384 371.2 377.6z" p-id="1965"></path><path d="M723.2 326.4 499.2 326.4C492.8 326.4 492.8 326.4 492.8 320l0 0c0-6.4 6.4-6.4 6.4-6.4l224 0c6.4 0 6.4 6.4 6.4 6.4l0 0C736 326.4 729.6 326.4 723.2 326.4z" p-id="1966"></path><path d="M723.2 422.4 499.2 422.4c-6.4 0-6.4-6.4-6.4-6.4l0 0c0-6.4 6.4-6.4 6.4-6.4l224 0c6.4 0 6.4 6.4 6.4 6.4l0 0C736 416 729.6 422.4 723.2 422.4z" p-id="1967"></path><path d="M729.6 505.6 300.8 505.6c-6.4 0-6.4-6.4-6.4-6.4l0 0c0-6.4 6.4-6.4 6.4-6.4l435.2 0c6.4 0 6.4 6.4 6.4 6.4l0 0C736 505.6 736 505.6 729.6 505.6z" p-id="1968"></path><path d="M729.6 601.6 300.8 601.6c-6.4 0-6.4-6.4-6.4-6.4l0 0c0-6.4 6.4-6.4 6.4-6.4l435.2 0c6.4 0 6.4 6.4 6.4 6.4l0 0C736 601.6 736 601.6 729.6 601.6z" p-id="1969"></path><path d="M729.6 697.6 300.8 697.6c-6.4 0-6.4-6.4-6.4-6.4l0 0c0-6.4 6.4-6.4 6.4-6.4l435.2 0c6.4 0 6.4 6.4 6.4 6.4l0 0C736 697.6 736 697.6 729.6 697.6z" p-id="1970"></path><path d="M729.6 793.6 294.4 793.6c-6.4 0-6.4-6.4-6.4-6.4l0 0c0-6.4 6.4-6.4 6.4-6.4l435.2 0c6.4 0 6.4 6.4 6.4 6.4l0 0C736 793.6 729.6 793.6 729.6 793.6z" p-id="1971"></path></svg>