<?xml version="1.0" standalone="no"?><!DOCTYPE svg PUBLIC "-//W3C//DTD SVG 1.1//EN" "http://www.w3.org/Graphics/SVG/1.1/DTD/svg11.dtd"><svg t="1591421360434" class="icon" viewBox="0 0 1024 1024" version="1.1" xmlns="http://www.w3.org/2000/svg" p-id="2756" xmlns:xlink="http://www.w3.org/1999/xlink" width="200" height="200"><defs><style type="text/css"></style></defs><path d="M249.7792 807.6032 358.4 742.5792l108.6208 65.024C475.5584 812.7104 486.4 806.5664 486.4 796.6208L486.4 281.6c0-28.2752-22.9248-51.2-51.2-51.2L281.6 230.4c-28.2752 0-51.2 22.9248-51.2 51.2l0 515.0208C230.4 806.5664 241.2416 812.7104 249.7792 807.6032zM307.2 281.6l102.4 0c14.144 0 25.6 11.456 25.6 25.6l0 430.144-76.8-45.9648-76.8 45.9648L281.6 307.2C281.6 293.0688 293.0688 281.6 307.2 281.6z" p-id="2757"></path><path d="M998.4 396.8c14.1312 0 25.6-11.4688 25.6-25.6s-11.4688-25.6-25.6-25.6c-57.8432 0-104.896-41.9584-104.896-93.5424l0-43.328C893.504 157.1584 940.5568 115.2 998.4 115.2c14.1312 0 25.6-11.4688 25.6-25.6s-11.4688-25.6-25.6-25.6L120.512 64C54.0672 64 0 114.3552 0 176.2432l0 108.3136C0 319.4112 17.152 350.592 43.9936 371.2 17.152 391.808 0 423.0016 0 457.856l0 108.3008C0 601.0112 17.152 632.192 43.9936 652.8 17.152 673.408 0 704.6016 0 739.456l0 108.3008C0 909.6448 54.0672 960 120.512 960L998.4 960c14.1312 0 25.6-11.4688 25.6-25.6s-11.4688-25.6-25.6-25.6c-57.8432 0-104.896-41.9584-104.896-93.5424l0-43.3152C893.504 720.3584 940.5568 678.4 998.4 678.4c14.1312 0 25.6-11.4688 25.6-25.6s-11.4688-25.6-25.6-25.6c-57.8432 0-104.896-41.9584-104.896-93.5424l0-43.3152C893.504 438.7584 940.5568 396.8 998.4 396.8zM879.3728 627.2 537.6 627.2c-14.144 0-25.6 11.456-25.6 25.6l0 0c0 14.144 11.456 25.6 25.6 25.6l341.7728 0c-23.1168 25.2544-37.0688 57.9072-37.0688 93.5424l0 43.3152c0 35.6224 13.952 68.288 37.0688 93.5424L120.512 908.8C82.2912 908.8 51.2 881.4208 51.2 847.7568L51.2 739.456C51.2 705.792 82.2912 678.4 120.512 678.4L179.2 678.4c14.144 0 25.6-11.456 25.6-25.6l0 0c0-14.144-11.456-25.6-25.6-25.6L120.512 627.2C82.2912 627.2 51.2 599.8208 51.2 566.1568L51.2 457.856C51.2 424.192 82.2912 396.8 120.512 396.8L179.2 396.8c14.144 0 25.6-11.456 25.6-25.6l0 0c0-14.144-11.456-25.6-25.6-25.6L120.512 345.6C82.2912 345.6 51.2 318.2208 51.2 284.5568l0-108.3136C51.2 142.5792 82.2912 115.2 120.512 115.2l758.8608 0c-23.104 25.2416-37.0688 57.9072-37.0688 93.5424l0 43.328c0 35.6224 13.952 68.288 37.0688 93.5424L537.6 345.6128c-14.144 0-25.6 11.456-25.6 25.6l0 0c0 14.144 11.456 25.6 25.6 25.6l341.7728 0c-23.1168 25.2544-37.0688 57.9072-37.0688 93.5424l0 43.3152C842.304 569.2928 856.2688 601.9584 879.3728 627.2z" p-id="2758"></path></svg>