<?xml version="1.0" standalone="no"?><!DOCTYPE svg PUBLIC "-//W3C//DTD SVG 1.1//EN" "http://www.w3.org/Graphics/SVG/1.1/DTD/svg11.dtd"><svg t="1587518644958" class="icon" viewBox="0 0 1078 1024" version="1.1" xmlns="http://www.w3.org/2000/svg" p-id="5042" xmlns:xlink="http://www.w3.org/1999/xlink" width="210.546875" height="200"><defs><style type="text/css"></style></defs><path d="M0 922.189503m46.536056 0l976.326448 0q46.536056 0 46.536055 46.536056l0 0q0 46.536056-46.536055 46.536056l-976.326448 0q-46.536056 0-46.536056-46.536056l0 0q0-46.536056 46.536056-46.536056Z" fill="#727171" p-id="5043"></path><path d="M950.576497 1015.261615H118.822062V607.140406a415.877218 415.877218 0 0 1 831.754435 0z m-738.682324-93.072112h645.610213V607.140406a322.805106 322.805106 0 0 0-645.610213 0z" fill="#727171" p-id="5044"></path><path d="M759.907247-11.390355m26.867604 15.512019l0 0q26.867604 15.512019 11.355586 42.379622l-57.161788 99.007122q-15.512019 26.867604-42.379623 11.355586l0 0q-26.867604-15.512019-11.355586-42.379623l57.161789-99.007122q15.512019-26.867604 42.379622-11.355585Z" fill="#727171" p-id="5045"></path><path d="M972.722766 107.233796m15.512019 26.867604l0 0q15.512019 26.867604-11.355586 42.379623l-99.007121 57.161789q-26.867604 15.512019-42.379623-11.355586l0 0q-15.512019-26.867604 11.355585-42.379623l99.007122-57.161788q26.867604-15.512019 42.379623 11.355585Z" fill="#727171" p-id="5046"></path><path d="M277.683863 19.635353m26.867605-15.512019l0 0q26.867604-15.512019 42.379622 11.355586l57.161789 99.007122q15.512019 26.867604-11.355586 42.379623l0 0q-26.867604 15.512019-42.379623-11.355586l-57.161788-99.007122q-15.512019-26.867604 11.355586-42.379623Z" fill="#727171" p-id="5047"></path><path d="M100.954475 160.970526m15.512019-26.867604l0 0q15.512019-26.867604 42.379622-11.355586l99.007122 57.161788q26.867604 15.512019 11.355586 42.379623l0 0q-15.512019 26.867604-42.379623 11.355586l-99.007122-57.161788q-26.867604-15.512019-11.355585-42.379623Z" fill="#727171" p-id="5048"></path><path d="M567.739879 382.991738l-31.954758 220.580904-96.019395-13.805696M498.866517 823.533065l31.954758-220.580904 96.019395 13.960817" fill="#727171" p-id="5049"></path></svg>