<?xml version="1.0" standalone="no"?><!DOCTYPE svg PUBLIC "-//W3C//DTD SVG 1.1//EN" "http://www.w3.org/Graphics/SVG/1.1/DTD/svg11.dtd"><svg t="1587518144812" class="icon" viewBox="0 0 1024 1024" version="1.1" xmlns="http://www.w3.org/2000/svg" p-id="2657" xmlns:xlink="http://www.w3.org/1999/xlink" width="200" height="200"><defs><style type="text/css"></style></defs><path d="M792 708.5c-11.1-22.2-27.7-55.6-29.7-65V453.1c0-65.5-25.5-127-71.8-173.3-22.3-22.3-48.2-39.8-76.4-51.9v-20.3c0-53.4-43.5-96.9-96.9-96.9-53.4 0-96.9 43.5-96.9 96.9v20.3c-28.2 12.1-54 29.6-76.4 51.9-46.3 46.3-71.8 107.8-71.8 173.3v190.4c-2.1 9.5-18.7 42.8-29.7 65-10.7 21.6-21.9 43.9-29.8 62.5-11.6 27.2-16.2 44.7-7.3 59.1 5.2 8.4 14.4 13.5 24.5 13.5h187.3v1.1c0 56.9 46.3 103.2 103.2 103.2 56.9 0 103.2-46.3 103.2-103.2v-1.1h181.1c10.1 0 19.3-5 24.5-13.5 8.9-14.4 4.3-31.9-7.3-59.1-7.9-18.6-19-40.9-29.8-62.5zM470.3 207.6c0-25.9 21-46.9 46.9-46.9s46.9 21 46.9 46.9v4.9c-15.3-3-31-4.5-46.9-4.5-15.9 0-31.6 1.5-46.9 4.5v-4.9z m103.3 637c0 29.3-23.9 53.2-53.2 53.2-29.3 0-53.2-23.9-53.2-53.2v-1.1h106.4c-0.1 0.4 0 0.8 0 1.1z m-316.2-51.1c7.8-18.6 20.9-44.8 29.8-62.8 25.4-51 35-71.6 35-86.2V453.1c0-83.4 52.6-154.7 126.4-182.6 3.4-0.5 6.7-1.6 9.5-3.3 18.6-5.9 38.5-9.2 59.1-9.2s40.4 3.2 59.1 9.2c2.9 1.7 6.1 2.9 9.5 3.3 73.8 27.8 126.4 99.2 126.4 182.6v191.5c0 14.6 9.6 35.2 35 86.2 9 18 22 44.2 29.8 62.8H257.4zM213.2 562.9c-11.6-53.9-11.5-109.4 0.2-160.3 3.1-13.5-5.3-26.9-18.8-30-13.5-3.1-26.9 5.3-30 18.8-13.4 58-13.5 121-0.4 182 2.5 11.7 12.9 19.8 24.4 19.8 1.7 0 3.5-0.2 5.3-0.6 13.6-2.9 22.2-16.2 19.3-29.7zM859.3 403.2c-3.1-13.5-16.5-21.9-30-18.8-13.5 3.1-21.9 16.5-18.8 30 11.7 51 11.8 106.4 0.2 160.3-2.9 13.5 5.7 26.8 19.2 29.7 1.8 0.4 3.5 0.6 5.3 0.6 11.5 0 21.9-8 24.4-19.8 13.2-61.1 13-124-0.3-182z" p-id="2658"></path></svg>