<?xml version="1.0" standalone="no"?><!DOCTYPE svg PUBLIC "-//W3C//DTD SVG 1.1//EN" "http://www.w3.org/Graphics/SVG/1.1/DTD/svg11.dtd"><svg t="1588747133341" class="icon" viewBox="0 0 1024 1024" version="1.1" xmlns="http://www.w3.org/2000/svg" p-id="1922" xmlns:xlink="http://www.w3.org/1999/xlink" width="200" height="200"><defs><style type="text/css"></style></defs><path d="M672 224c51.2 0 92.8 38.4 96 89.6V672h64v96c0 51.2-38.4 92.8-86.4 96H384c-51.2 0-92.8-38.4-96-89.6V416c-54.4 0-96-41.6-96-96 0-51.2 38.4-92.8 89.6-96H672z m0 64H352v480c0 16 12.8 28.8 28.8 32h6.4c12.8 0 25.6-12.8 28.8-28.8V672h288V320c0-16-12.8-28.8-28.8-32H672z m96 448h-288v32c0 12.8-3.2 22.4-6.4 32h265.6c12.8 0 25.6-12.8 28.8-28.8V736z m-160-224c19.2 0 32 12.8 32 32 0 16-12.8 28.8-28.8 32H448c-19.2 0-32-12.8-32-32 0-16 12.8-28.8 28.8-32H608z m0-128c19.2 0 32 12.8 32 32 0 16-12.8 28.8-28.8 32H448c-19.2 0-32-12.8-32-32 0-16 12.8-28.8 28.8-32H608zM288 288c-19.2 0-32 12.8-32 32 0 16 12.8 28.8 28.8 32H288V288z" p-id="1923"></path></svg>