<?xml version="1.0" standalone="no"?><!DOCTYPE svg PUBLIC "-//W3C//DTD SVG 1.1//EN" "http://www.w3.org/Graphics/SVG/1.1/DTD/svg11.dtd"><svg t="1587382393437" class="icon" viewBox="0 0 1024 1024" version="1.1" xmlns="http://www.w3.org/2000/svg" p-id="2858" xmlns:xlink="http://www.w3.org/1999/xlink" width="200" height="200"><defs><style type="text/css"></style></defs><path d="M948.57 424.68L532.7 71.85a32 32 0 0 0-41.4 0L75.43 424.68a32 32 0 1 0 41.4 48.8l11.07-9.39v463.65a32 32 0 1 0 64 0V410.31v-0.5L512 138.22l320.16 271.63v198.24a32 32 0 1 0 64 0V464.14l11 9.34a32 32 0 1 0 41.4-48.8z" p-id="2859"></path><path d="M255.85 863.49m12 0l72 0q12 0 12 12l0 72q0 12-12 12l-72 0q-12 0-12-12l0-72q0-12 12-12Z" p-id="2860"></path><path d="M399.86 863.49m12 0l72 0q12 0 12 12l0 72q0 12-12 12l-72 0q-12 0-12-12l0-72q0-12 12-12Z" p-id="2861"></path><path d="M256.58 736.38m12 0l72 0q12 0 12 12l0 72q0 12-12 12l-72 0q-12 0-12-12l0-72q0-12 12-12Z" p-id="2862"></path><path d="M256.58 608.9m12 0l72 0q12 0 12 12l0 72q0 12-12 12l-72 0q-12 0-12-12l0-72q0-12 12-12Z" p-id="2863"></path><path d="M399.86 735.65m12 0l72 0q12 0 12 12l0 72q0 12-12 12l-72 0q-12 0-12-12l0-72q0-12 12-12Z" p-id="2864"></path><path d="M543.86 863.49m12 0l72 0q12 0 12 12l0 72q0 12-12 12l-72 0q-12 0-12-12l0-72q0-12 12-12Z" p-id="2865"></path><path d="M840.31 820.51A101.18 101.18 0 1 0 805.07 856l48.82 48.93a25 25 0 1 0 35.4-35.31z m-87.1-0.17a51.1 51.1 0 1 1 51.1-51.1 51.16 51.16 0 0 1-51.1 51.1z" p-id="2866"></path></svg>